# xmcd CD database file
#
# Track frame offsets:
#	182
#	14047
#	29165
#	39437
#	54432
#	65782
#	76930
#	89225
#	101650
#	114770
#	127215
#	138480
#
# Disc length: 2020 seconds
#
# Revision: 0
# Processed by: cddbd v1.5.1PL0 Copyright (c) Steve Scherf et al.
# Submitted via: CDex 1.51
#
DISCID=b007e20c
DTITLE=Fred Astaire - Now
DYEAR=1900
DGENRE=Jazz
TTITLE0=Change Partners
TTITLE1=Isnt this a lovely day
TTITLE2=A Foggy Day
TTITLE3=The Girl on the Magazine cover I love
TTITLE4=The Afterbeat
TTITLE5=They cant take that away from me
TTITLE6=They all loughed
TTITLE7=I will walk alone
TTITLE8=One for my Baby
TTITLE9=Oh Lady be Good
TTITLE10=Lady on the evening
TTITLE11=Somethings gotta give
EXTD=
EXTT0=
EXTT1=
EXTT2=
EXTT3=
EXTT4=
EXTT5=
EXTT6=
EXTT7=
EXTT8=
EXTT9=
EXTT10=
EXTT11=
PLAYORDER=
